# vtk DataFile Version 2.0
wing3d
ASCII
DATASET POLYDATA
POINTS 327 float
1.0 -3.0 -1.6653345369377347e-17
0.9829629131445341 -3.0 0.0024492511580229024
0.9330127018922192 -3.0 0.009331508505708802
0.8535533905932737 -3.0 0.019438476440169234
0.7499999999999999 -3.0 0.031204390430159917
0.6294095225512604 -3.0 0.04294927798703397
0.49999999999999994 -3.0 0.05286150200057158
0.3705904774487395 -3.0 0.05896483265098817
0.24999999999999994 -3.0 0.05940749999999998
0.1464466094067262 -3.0 0.05308265012290848
0.06698729810778065 -3.0 0.04014516788398887
0.017037086855465844 -3.0 0.021903536694259613
0.0 -3.0 0.0
0.017037086855465844 -3.0 -0.021903536694259613
0.06698729810778065 -3.0 -0.04014516788398887
0.1464466094067262 -3.0 -0.05308265012290848
0.24999999999999994 -3.0 -0.05940749999999998
0.3705904774487395 -3.0 -0.05896483265098817
0.49999999999999994 -3.0 -0.05286150200057158
0.6294095225512604 -3.0 -0.04294927798703397
0.7499999999999999 -3.0 -0.031204390430159917
0.8535533905932737 -3.0 -0.019438476440169234
0.9330127018922192 -3.0 -0.009331508505708802
0.9829629131445341 -3.0 -0.0024492511580229024
1.0 -3.0 1.6653345369377347e-17
1.0 -2.5 -1.6653345369377347e-17
0.9829629131445341 -2.5 0.0024492511580229024
0.9330127018922192 -2.5 0.009331508505708802
0.8535533905932737 -2.5 0.019438476440169234
0.7499999999999999 -2.5 0.031204390430159917
0.6294095225512604 -2.5 0.04294927798703397
0.49999999999999994 -2.5 0.05286150200057158
0.3705904774487395 -2.5 0.05896483265098817
0.24999999999999994 -2.5 0.05940749999999998
0.1464466094067262 -2.5 0.05308265012290848
0.06698729810778065 -2.5 0.04014516788398887
0.017037086855465844 -2.5 0.021903536694259613
0.0 -2.5 0.0
0.017037086855465844 -2.5 -0.021903536694259613
0.06698729810778065 -2.5 -0.04014516788398887
0.1464466094067262 -2.5 -0.05308265012290848
0.24999999999999994 -2.5 -0.05940749999999998
0.3705904774487395 -2.5 -0.05896483265098817
0.49999999999999994 -2.5 -0.05286150200057158
0.6294095225512604 -2.5 -0.04294927798703397
0.7499999999999999 -2.5 -0.031204390430159917
0.8535533905932737 -2.5 -0.019438476440169234
0.9330127018922192 -2.5 -0.009331508505708802
0.9829629131445341 -2.5 -0.0024492511580229024
1.0 -2.5 1.6653345369377347e-17
1.0 -2.0 -1.6653345369377347e-17
0.9829629131445341 -2.0 0.0024492511580229024
0.9330127018922192 -2.0 0.009331508505708802
0.8535533905932737 -2.0 0.019438476440169234
0.7499999999999999 -2.0 0.031204390430159917
0.6294095225512604 -2.0 0.04294927798703397
0.49999999999999994 -2.0 0.05286150200057158
0.3705904774487395 -2.0 0.05896483265098817
0.24999999999999994 -2.0 0.05940749999999998
0.1464466094067262 -2.0 0.05308265012290848
0.06698729810778065 -2.0 0.04014516788398887
0.017037086855465844 -2.0 0.021903536694259613
0.0 -2.0 0.0
0.017037086855465844 -2.0 -0.021903536694259613
0.06698729810778065 -2.0 -0.04014516788398887
0.1464466094067262 -2.0 -0.05308265012290848
0.24999999999999994 -2.0 -0.05940749999999998
0.3705904774487395 -2.0 -0.05896483265098817
0.49999999999999994 -2.0 -0.05286150200057158
0.6294095225512604 -2.0 -0.04294927798703397
0.7499999999999999 -2.0 -0.031204390430159917
0.8535533905932737 -2.0 -0.019438476440169234
0.9330127018922192 -2.0 -0.009331508505708802
0.9829629131445341 -2.0 -0.0024492511580229024
1.0 -2.0 1.6653345369377347e-17
1.0 -1.5 -1.6653345369377347e-17
0.9829629131445341 -1.5 0.0024492511580229024
0.9330127018922192 -1.5 0.009331508505708802
0.8535533905932737 -1.5 0.019438476440169234
0.7499999999999999 -1.5 0.031204390430159917
0.6294095225512604 -1.5 0.04294927798703397
0.49999999999999994 -1.5 0.05286150200057158
0.3705904774487395 -1.5 0.05896483265098817
0.24999999999999994 -1.5 0.05940749999999998
0.1464466094067262 -1.5 0.05308265012290848
0.06698729810778065 -1.5 0.04014516788398887
0.017037086855465844 -1.5 0.021903536694259613
0.0 -1.5 0.0
0.017037086855465844 -1.5 -0.021903536694259613
0.06698729810778065 -1.5 -0.04014516788398887
0.1464466094067262 -1.5 -0.05308265012290848
0.24999999999999994 -1.5 -0.05940749999999998
0.3705904774487395 -1.5 -0.05896483265098817
0.49999999999999994 -1.5 -0.05286150200057158
0.6294095225512604 -1.5 -0.04294927798703397
0.7499999999999999 -1.5 -0.031204390430159917
0.8535533905932737 -1.5 -0.019438476440169234
0.9330127018922192 -1.5 -0.009331508505708802
0.9829629131445341 -1.5 -0.0024492511580229024
1.0 -1.5 1.6653345369377347e-17
1.0 -1.0 -1.6653345369377347e-17
0.9829629131445341 -1.0 0.0024492511580229024
0.9330127018922192 -1.0 0.009331508505708802
0.8535533905932737 -1.0 0.019438476440169234
0.7499999999999999 -1.0 0.031204390430159917
0.6294095225512604 -1.0 0.04294927798703397
0.49999999999999994 -1.0 0.05286150200057158
0.3705904774487395 -1.0 0.05896483265098817
0.24999999999999994 -1.0 0.05940749999999998
0.1464466094067262 -1.0 0.05308265012290848
0.06698729810778065 -1.0 0.04014516788398887
0.017037086855465844 -1.0 0.021903536694259613
0.0 -1.0 0.0
0.017037086855465844 -1.0 -0.021903536694259613
0.06698729810778065 -1.0 -0.04014516788398887
0.1464466094067262 -1.0 -0.05308265012290848
0.24999999999999994 -1.0 -0.05940749999999998
0.3705904774487395 -1.0 -0.05896483265098817
0.49999999999999994 -1.0 -0.05286150200057158
0.6294095225512604 -1.0 -0.04294927798703397
0.7499999999999999 -1.0 -0.031204390430159917
0.8535533905932737 -1.0 -0.019438476440169234
0.9330127018922192 -1.0 -0.009331508505708802
0.9829629131445341 -1.0 -0.0024492511580229024
1.0 -1.0 1.6653345369377347e-17
1.0 -0.5000000000000002 -1.6653345369377347e-17
0.9829629131445341 -0.5000000000000002 0.0024492511580229024
0.9330127018922192 -0.5000000000000002 0.009331508505708802
0.8535533905932737 -0.5000000000000002 0.019438476440169234
0.7499999999999999 -0.5000000000000002 0.031204390430159917
0.6294095225512604 -0.5000000000000002 0.04294927798703397
0.49999999999999994 -0.5000000000000002 0.05286150200057158
0.3705904774487395 -0.5000000000000002 0.05896483265098817
0.24999999999999994 -0.5000000000000002 0.05940749999999998
0.1464466094067262 -0.5000000000000002 0.05308265012290848
0.06698729810778065 -0.5000000000000002 0.04014516788398887
0.017037086855465844 -0.5000000000000002 0.021903536694259613
0.0 -0.5000000000000002 0.0
0.017037086855465844 -0.5000000000000002 -0.021903536694259613
0.06698729810778065 -0.5000000000000002 -0.04014516788398887
0.1464466094067262 -0.5000000000000002 -0.05308265012290848
0.24999999999999994 -0.5000000000000002 -0.05940749999999998
0.3705904774487395 -0.5000000000000002 -0.05896483265098817
0.49999999999999994 -0.5000000000000002 -0.05286150200057158
0.6294095225512604 -0.5000000000000002 -0.04294927798703397
0.7499999999999999 -0.5000000000000002 -0.031204390430159917
0.8535533905932737 -0.5000000000000002 -0.019438476440169234
0.9330127018922192 -0.5000000000000002 -0.009331508505708802
0.9829629131445341 -0.5000000000000002 -0.0024492511580229024
1.0 -0.5000000000000002 1.6653345369377347e-17
1.0 0.0 -1.6653345369377347e-17
0.9829629131445341 0.0 0.0024492511580229024
0.9330127018922192 0.0 0.009331508505708802
0.8535533905932737 0.0 0.019438476440169234
0.7499999999999999 0.0 0.031204390430159917
0.6294095225512604 0.0 0.04294927798703397
0.49999999999999994 0.0 0.05286150200057158
0.3705904774487395 0.0 0.05896483265098817
0.24999999999999994 0.0 0.05940749999999998
0.1464466094067262 0.0 0.05308265012290848
0.06698729810778065 0.0 0.04014516788398887
0.017037086855465844 0.0 0.021903536694259613
0.0 0.0 0.0
0.017037086855465844 0.0 -0.021903536694259613
0.06698729810778065 0.0 -0.04014516788398887
0.1464466094067262 0.0 -0.05308265012290848
0.24999999999999994 0.0 -0.05940749999999998
0.3705904774487395 0.0 -0.05896483265098817
0.49999999999999994 0.0 -0.05286150200057158
0.6294095225512604 0.0 -0.04294927798703397
0.7499999999999999 0.0 -0.031204390430159917
0.8535533905932737 0.0 -0.019438476440169234
0.9330127018922192 0.0 -0.009331508505708802
0.9829629131445341 0.0 -0.0024492511580229024
1.0 0.0 1.6653345369377347e-17
1.0 0.49999999999999956 -1.6653345369377347e-17
0.9829629131445341 0.49999999999999956 0.0024492511580229024
0.9330127018922192 0.49999999999999956 0.009331508505708802
0.8535533905932737 0.49999999999999956 0.019438476440169234
0.7499999999999999 0.49999999999999956 0.031204390430159917
0.6294095225512604 0.49999999999999956 0.04294927798703397
0.49999999999999994 0.49999999999999956 0.05286150200057158
0.3705904774487395 0.49999999999999956 0.05896483265098817
0.24999999999999994 0.49999999999999956 0.05940749999999998
0.1464466094067262 0.49999999999999956 0.05308265012290848
0.06698729810778065 0.49999999999999956 0.04014516788398887
0.017037086855465844 0.49999999999999956 0.021903536694259613
0.0 0.49999999999999956 0.0
0.017037086855465844 0.49999999999999956 -0.021903536694259613
0.06698729810778065 0.49999999999999956 -0.04014516788398887
0.1464466094067262 0.49999999999999956 -0.05308265012290848
0.24999999999999994 0.49999999999999956 -0.05940749999999998
0.3705904774487395 0.49999999999999956 -0.05896483265098817
0.49999999999999994 0.49999999999999956 -0.05286150200057158
0.6294095225512604 0.49999999999999956 -0.04294927798703397
0.7499999999999999 0.49999999999999956 -0.031204390430159917
0.8535533905932737 0.49999999999999956 -0.019438476440169234
0.9330127018922192 0.49999999999999956 -0.009331508505708802
0.9829629131445341 0.49999999999999956 -0.0024492511580229024
1.0 0.49999999999999956 1.6653345369377347e-17
1.0 0.9999999999999998 -1.6653345369377347e-17
0.9829629131445341 0.9999999999999998 0.0024492511580229024
0.9330127018922192 0.9999999999999998 0.009331508505708802
0.8535533905932737 0.9999999999999998 0.019438476440169234
0.7499999999999999 0.9999999999999998 0.031204390430159917
0.6294095225512604 0.9999999999999998 0.04294927798703397
0.49999999999999994 0.9999999999999998 0.05286150200057158
0.3705904774487395 0.9999999999999998 0.05896483265098817
0.24999999999999994 0.9999999999999998 0.05940749999999998
0.1464466094067262 0.9999999999999998 0.05308265012290848
0.06698729810778065 0.9999999999999998 0.04014516788398887
0.017037086855465844 0.9999999999999998 0.021903536694259613
0.0 0.9999999999999998 0.0
0.017037086855465844 0.9999999999999998 -0.021903536694259613
0.06698729810778065 0.9999999999999998 -0.04014516788398887
0.1464466094067262 0.9999999999999998 -0.05308265012290848
0.24999999999999994 0.9999999999999998 -0.05940749999999998
0.3705904774487395 0.9999999999999998 -0.05896483265098817
0.49999999999999994 0.9999999999999998 -0.05286150200057158
0.6294095225512604 0.9999999999999998 -0.04294927798703397
0.7499999999999999 0.9999999999999998 -0.031204390430159917
0.8535533905932737 0.9999999999999998 -0.019438476440169234
0.9330127018922192 0.9999999999999998 -0.009331508505708802
0.9829629131445341 0.9999999999999998 -0.0024492511580229024
1.0 0.9999999999999998 1.6653345369377347e-17
1.0 1.5 -1.6653345369377347e-17
0.9829629131445341 1.5 0.0024492511580229024
0.9330127018922192 1.5 0.009331508505708802
0.8535533905932737 1.5 0.019438476440169234
0.7499999999999999 1.5 0.031204390430159917
0.6294095225512604 1.5 0.04294927798703397
0.49999999999999994 1.5 0.05286150200057158
0.3705904774487395 1.5 0.05896483265098817
0.24999999999999994 1.5 0.05940749999999998
0.1464466094067262 1.5 0.05308265012290848
0.06698729810778065 1.5 0.04014516788398887
0.017037086855465844 1.5 0.021903536694259613
0.0 1.5 0.0
0.017037086855465844 1.5 -0.021903536694259613
0.06698729810778065 1.5 -0.04014516788398887
0.1464466094067262 1.5 -0.05308265012290848
0.24999999999999994 1.5 -0.05940749999999998
0.3705904774487395 1.5 -0.05896483265098817
0.49999999999999994 1.5 -0.05286150200057158
0.6294095225512604 1.5 -0.04294927798703397
0.7499999999999999 1.5 -0.031204390430159917
0.8535533905932737 1.5 -0.019438476440169234
0.9330127018922192 1.5 -0.009331508505708802
0.9829629131445341 1.5 -0.0024492511580229024
1.0 1.5 1.6653345369377347e-17
1.0 1.9999999999999996 -1.6653345369377347e-17
0.9829629131445341 1.9999999999999996 0.0024492511580229024
0.9330127018922192 1.9999999999999996 0.009331508505708802
0.8535533905932737 1.9999999999999996 0.019438476440169234
0.7499999999999999 1.9999999999999996 0.031204390430159917
0.6294095225512604 1.9999999999999996 0.04294927798703397
0.49999999999999994 1.9999999999999996 0.05286150200057158
0.3705904774487395 1.9999999999999996 0.05896483265098817
0.24999999999999994 1.9999999999999996 0.05940749999999998
0.1464466094067262 1.9999999999999996 0.05308265012290848
0.06698729810778065 1.9999999999999996 0.04014516788398887
0.017037086855465844 1.9999999999999996 0.021903536694259613
0.0 1.9999999999999996 0.0
0.017037086855465844 1.9999999999999996 -0.021903536694259613
0.06698729810778065 1.9999999999999996 -0.04014516788398887
0.1464466094067262 1.9999999999999996 -0.05308265012290848
0.24999999999999994 1.9999999999999996 -0.05940749999999998
0.3705904774487395 1.9999999999999996 -0.05896483265098817
0.49999999999999994 1.9999999999999996 -0.05286150200057158
0.6294095225512604 1.9999999999999996 -0.04294927798703397
0.7499999999999999 1.9999999999999996 -0.031204390430159917
0.8535533905932737 1.9999999999999996 -0.019438476440169234
0.9330127018922192 1.9999999999999996 -0.009331508505708802
0.9829629131445341 1.9999999999999996 -0.0024492511580229024
1.0 1.9999999999999996 1.6653345369377347e-17
1.0 2.5 -1.6653345369377347e-17
0.9829629131445341 2.5 0.0024492511580229024
0.9330127018922192 2.5 0.009331508505708802
0.8535533905932737 2.5 0.019438476440169234
0.7499999999999999 2.5 0.031204390430159917
0.6294095225512604 2.5 0.04294927798703397
0.49999999999999994 2.5 0.05286150200057158
0.3705904774487395 2.5 0.05896483265098817
0.24999999999999994 2.5 0.05940749999999998
0.1464466094067262 2.5 0.05308265012290848
0.06698729810778065 2.5 0.04014516788398887
0.017037086855465844 2.5 0.021903536694259613
0.0 2.5 0.0
0.017037086855465844 2.5 -0.021903536694259613
0.06698729810778065 2.5 -0.04014516788398887
0.1464466094067262 2.5 -0.05308265012290848
0.24999999999999994 2.5 -0.05940749999999998
0.3705904774487395 2.5 -0.05896483265098817
0.49999999999999994 2.5 -0.05286150200057158
0.6294095225512604 2.5 -0.04294927798703397
0.7499999999999999 2.5 -0.031204390430159917
0.8535533905932737 2.5 -0.019438476440169234
0.9330127018922192 2.5 -0.009331508505708802
0.9829629131445341 2.5 -0.0024492511580229024
1.0 2.5 1.6653345369377347e-17
1.0 3.0 -1.6653345369377347e-17
0.9829629131445341 3.0 0.0024492511580229024
0.9330127018922192 3.0 0.009331508505708802
0.8535533905932737 3.0 0.019438476440169234
0.7499999999999999 3.0 0.031204390430159917
0.6294095225512604 3.0 0.04294927798703397
0.49999999999999994 3.0 0.05286150200057158
0.3705904774487395 3.0 0.05896483265098817
0.24999999999999994 3.0 0.05940749999999998
0.1464466094067262 3.0 0.05308265012290848
0.06698729810778065 3.0 0.04014516788398887
0.017037086855465844 3.0 0.021903536694259613
0.0 3.0 0.0
0.017037086855465844 3.0 -0.021903536694259613
0.06698729810778065 3.0 -0.04014516788398887
0.1464466094067262 3.0 -0.05308265012290848
0.24999999999999994 3.0 -0.05940749999999998
0.3705904774487395 3.0 -0.05896483265098817
0.49999999999999994 3.0 -0.05286150200057158
0.6294095225512604 3.0 -0.04294927798703397
0.7499999999999999 3.0 -0.031204390430159917
0.8535533905932737 3.0 -0.019438476440169234
0.9330127018922192 3.0 -0.009331508505708802
0.9829629131445341 3.0 -0.0024492511580229024
1.0 3.0 1.6653345369377347e-17
0.5199999999999999 -3.0 6.314393452555578e-19
0.5199999999999999 3.0 6.314393452555578e-19
POLYGONS 624 2496
3 25 26 1
3 25 1 0
3 26 27 2
3 26 2 1
3 27 28 3
3 27 3 2
3 28 29 4
3 28 4 3
3 29 30 5
3 29 5 4
3 30 31 6
3 30 6 5
3 31 32 7
3 31 7 6
3 32 33 8
3 32 8 7
3 33 34 9
3 33 9 8
3 34 35 10
3 34 10 9
3 35 36 11
3 35 11 10
3 36 37 12
3 36 12 11
3 37 38 13
3 37 13 12
3 38 39 14
3 38 14 13
3 39 40 15
3 39 15 14
3 40 41 16
3 40 16 15
3 41 42 17
3 41 17 16
3 42 43 18
3 42 18 17
3 43 44 19
3 43 19 18
3 44 45 20
3 44 20 19
3 45 46 21
3 45 21 20
3 46 47 22
3 46 22 21
3 47 48 23
3 47 23 22
3 48 49 24
3 48 24 23
3 50 51 26
3 50 26 25
3 51 52 27
3 51 27 26
3 52 53 28
3 52 28 27
3 53 54 29
3 53 29 28
3 54 55 30
3 54 30 29
3 55 56 31
3 55 31 30
3 56 57 32
3 56 32 31
3 57 58 33
3 57 33 32
3 58 59 34
3 58 34 33
3 59 60 35
3 59 35 34
3 60 61 36
3 60 36 35
3 61 62 37
3 61 37 36
3 62 63 38
3 62 38 37
3 63 64 39
3 63 39 38
3 64 65 40
3 64 40 39
3 65 66 41
3 65 41 40
3 66 67 42
3 66 42 41
3 67 68 43
3 67 43 42
3 68 69 44
3 68 44 43
3 69 70 45
3 69 45 44
3 70 71 46
3 70 46 45
3 71 72 47
3 71 47 46
3 72 73 48
3 72 48 47
3 73 74 49
3 73 49 48
3 75 76 51
3 75 51 50
3 76 77 52
3 76 52 51
3 77 78 53
3 77 53 52
3 78 79 54
3 78 54 53
3 79 80 55
3 79 55 54
3 80 81 56
3 80 56 55
3 81 82 57
3 81 57 56
3 82 83 58
3 82 58 57
3 83 84 59
3 83 59 58
3 84 85 60
3 84 60 59
3 85 86 61
3 85 61 60
3 86 87 62
3 86 62 61
3 87 88 63
3 87 63 62
3 88 89 64
3 88 64 63
3 89 90 65
3 89 65 64
3 90 91 66
3 90 66 65
3 91 92 67
3 91 67 66
3 92 93 68
3 92 68 67
3 93 94 69
3 93 69 68
3 94 95 70
3 94 70 69
3 95 96 71
3 95 71 70
3 96 97 72
3 96 72 71
3 97 98 73
3 97 73 72
3 98 99 74
3 98 74 73
3 100 101 76
3 100 76 75
3 101 102 77
3 101 77 76
3 102 103 78
3 102 78 77
3 103 104 79
3 103 79 78
3 104 105 80
3 104 80 79
3 105 106 81
3 105 81 80
3 106 107 82
3 106 82 81
3 107 108 83
3 107 83 82
3 108 109 84
3 108 84 83
3 109 110 85
3 109 85 84
3 110 111 86
3 110 86 85
3 111 112 87
3 111 87 86
3 112 113 88
3 112 88 87
3 113 114 89
3 113 89 88
3 114 115 90
3 114 90 89
3 115 116 91
3 115 91 90
3 116 117 92
3 116 92 91
3 117 118 93
3 117 93 92
3 118 119 94
3 118 94 93
3 119 120 95
3 119 95 94
3 120 121 96
3 120 96 95
3 121 122 97
3 121 97 96
3 122 123 98
3 122 98 97
3 123 124 99
3 123 99 98
3 125 126 101
3 125 101 100
3 126 127 102
3 126 102 101
3 127 128 103
3 127 103 102
3 128 129 104
3 128 104 103
3 129 130 105
3 129 105 104
3 130 131 106
3 130 106 105
3 131 132 107
3 131 107 106
3 132 133 108
3 132 108 107
3 133 134 109
3 133 109 108
3 134 135 110
3 134 110 109
3 135 136 111
3 135 111 110
3 136 137 112
3 136 112 111
3 137 138 113
3 137 113 112
3 138 139 114
3 138 114 113
3 139 140 115
3 139 115 114
3 140 141 116
3 140 116 115
3 141 142 117
3 141 117 116
3 142 143 118
3 142 118 117
3 143 144 119
3 143 119 118
3 144 145 120
3 144 120 119
3 145 146 121
3 145 121 120
3 146 147 122
3 146 122 121
3 147 148 123
3 147 123 122
3 148 149 124
3 148 124 123
3 150 151 126
3 150 126 125
3 151 152 127
3 151 127 126
3 152 153 128
3 152 128 127
3 153 154 129
3 153 129 128
3 154 155 130
3 154 130 129
3 155 156 131
3 155 131 130
3 156 157 132
3 156 132 131
3 157 158 133
3 157 133 132
3 158 159 134
3 158 134 133
3 159 160 135
3 159 135 134
3 160 161 136
3 160 136 135
3 161 162 137
3 161 137 136
3 162 163 138
3 162 138 137
3 163 164 139
3 163 139 138
3 164 165 140
3 164 140 139
3 165 166 141
3 165 141 140
3 166 167 142
3 166 142 141
3 167 168 143
3 167 143 142
3 168 169 144
3 168 144 143
3 169 170 145
3 169 145 144
3 170 171 146
3 170 146 145
3 171 172 147
3 171 147 146
3 172 173 148
3 172 148 147
3 173 174 149
3 173 149 148
3 175 176 151
3 175 151 150
3 176 177 152
3 176 152 151
3 177 178 153
3 177 153 152
3 178 179 154
3 178 154 153
3 179 180 155
3 179 155 154
3 180 181 156
3 180 156 155
3 181 182 157
3 181 157 156
3 182 183 158
3 182 158 157
3 183 184 159
3 183 159 158
3 184 185 160
3 184 160 159
3 185 186 161
3 185 161 160
3 186 187 162
3 186 162 161
3 187 188 163
3 187 163 162
3 188 189 164
3 188 164 163
3 189 190 165
3 189 165 164
3 190 191 166
3 190 166 165
3 191 192 167
3 191 167 166
3 192 193 168
3 192 168 167
3 193 194 169
3 193 169 168
3 194 195 170
3 194 170 169
3 195 196 171
3 195 171 170
3 196 197 172
3 196 172 171
3 197 198 173
3 197 173 172
3 198 199 174
3 198 174 173
3 200 201 176
3 200 176 175
3 201 202 177
3 201 177 176
3 202 203 178
3 202 178 177
3 203 204 179
3 203 179 178
3 204 205 180
3 204 180 179
3 205 206 181
3 205 181 180
3 206 207 182
3 206 182 181
3 207 208 183
3 207 183 182
3 208 209 184
3 208 184 183
3 209 210 185
3 209 185 184
3 210 211 186
3 210 186 185
3 211 212 187
3 211 187 186
3 212 213 188
3 212 188 187
3 213 214 189
3 213 189 188
3 214 215 190
3 214 190 189
3 215 216 191
3 215 191 190
3 216 217 192
3 216 192 191
3 217 218 193
3 217 193 192
3 218 219 194
3 218 194 193
3 219 220 195
3 219 195 194
3 220 221 196
3 220 196 195
3 221 222 197
3 221 197 196
3 222 223 198
3 222 198 197
3 223 224 199
3 223 199 198
3 225 226 201
3 225 201 200
3 226 227 202
3 226 202 201
3 227 228 203
3 227 203 202
3 228 229 204
3 228 204 203
3 229 230 205
3 229 205 204
3 230 231 206
3 230 206 205
3 231 232 207
3 231 207 206
3 232 233 208
3 232 208 207
3 233 234 209
3 233 209 208
3 234 235 210
3 234 210 209
3 235 236 211
3 235 211 210
3 236 237 212
3 236 212 211
3 237 238 213
3 237 213 212
3 238 239 214
3 238 214 213
3 239 240 215
3 239 215 214
3 240 241 216
3 240 216 215
3 241 242 217
3 241 217 216
3 242 243 218
3 242 218 217
3 243 244 219
3 243 219 218
3 244 245 220
3 244 220 219
3 245 246 221
3 245 221 220
3 246 247 222
3 246 222 221
3 247 248 223
3 247 223 222
3 248 249 224
3 248 224 223
3 250 251 226
3 250 226 225
3 251 252 227
3 251 227 226
3 252 253 228
3 252 228 227
3 253 254 229
3 253 229 228
3 254 255 230
3 254 230 229
3 255 256 231
3 255 231 230
3 256 257 232
3 256 232 231
3 257 258 233
3 257 233 232
3 258 259 234
3 258 234 233
3 259 260 235
3 259 235 234
3 260 261 236
3 260 236 235
3 261 262 237
3 261 237 236
3 262 263 238
3 262 238 237
3 263 264 239
3 263 239 238
3 264 265 240
3 264 240 239
3 265 266 241
3 265 241 240
3 266 267 242
3 266 242 241
3 267 268 243
3 267 243 242
3 268 269 244
3 268 244 243
3 269 270 245
3 269 245 244
3 270 271 246
3 270 246 245
3 271 272 247
3 271 247 246
3 272 273 248
3 272 248 247
3 273 274 249
3 273 249 248
3 275 276 251
3 275 251 250
3 276 277 252
3 276 252 251
3 277 278 253
3 277 253 252
3 278 279 254
3 278 254 253
3 279 280 255
3 279 255 254
3 280 281 256
3 280 256 255
3 281 282 257
3 281 257 256
3 282 283 258
3 282 258 257
3 283 284 259
3 283 259 258
3 284 285 260
3 284 260 259
3 285 286 261
3 285 261 260
3 286 287 262
3 286 262 261
3 287 288 263
3 287 263 262
3 288 289 264
3 288 264 263
3 289 290 265
3 289 265 264
3 290 291 266
3 290 266 265
3 291 292 267
3 291 267 266
3 292 293 268
3 292 268 267
3 293 294 269
3 293 269 268
3 294 295 270
3 294 270 269
3 295 296 271
3 295 271 270
3 296 297 272
3 296 272 271
3 297 298 273
3 297 273 272
3 298 299 274
3 298 274 273
3 300 301 276
3 300 276 275
3 301 302 277
3 301 277 276
3 302 303 278
3 302 278 277
3 303 304 279
3 303 279 278
3 304 305 280
3 304 280 279
3 305 306 281
3 305 281 280
3 306 307 282
3 306 282 281
3 307 308 283
3 307 283 282
3 308 309 284
3 308 284 283
3 309 310 285
3 309 285 284
3 310 311 286
3 310 286 285
3 311 312 287
3 311 287 286
3 312 313 288
3 312 288 287
3 313 314 289
3 313 289 288
3 314 315 290
3 314 290 289
3 315 316 291
3 315 291 290
3 316 317 292
3 316 292 291
3 317 318 293
3 317 293 292
3 318 319 294
3 318 294 293
3 319 320 295
3 319 295 294
3 320 321 296
3 320 296 295
3 321 322 297
3 321 297 296
3 322 323 298
3 322 298 297
3 323 324 299
3 323 299 298
3 325 1 0
3 325 2 1
3 325 3 2
3 325 4 3
3 325 5 4
3 325 6 5
3 325 7 6
3 325 8 7
3 325 9 8
3 325 10 9
3 325 11 10
3 325 12 11
3 325 13 12
3 325 14 13
3 325 15 14
3 325 16 15
3 325 17 16
3 325 18 17
3 325 19 18
3 325 20 19
3 325 21 20
3 325 22 21
3 325 23 22
3 325 24 23
3 326 301 300
3 326 302 301
3 326 303 302
3 326 304 303
3 326 305 304
3 326 306 305
3 326 307 306
3 326 308 307
3 326 309 308
3 326 310 309
3 326 311 310
3 326 312 311
3 326 313 312
3 326 314 313
3 326 315 314
3 326 316 315
3 326 317 316
3 326 318 317
3 326 319 318
3 326 320 319
3 326 321 320
3 326 322 321
3 326 323 322
3 326 324 323
CELL_DATA 624
SCALARS Cp float 1
LOOKUP_TABLE default
-0.021936479303267475
-0.021936479303267475
0.010999716981685337
0.010999716981685337
-0.05198740750311526
-0.05198740750311526
-0.10590766097173487
-0.10590766097173487
-0.15728342809386575
-0.15728342809386575
-0.212801379410692
-0.212801379410692
-0.28674143246033945
-0.28674143246033945
-0.3791061484209912
-0.3791061484209912
-0.4806965988728005
-0.4806965988728005
-0.5822077349458701
-0.5822077349458701
-0.5724505619677029
-0.5724505619677029
-0.02877732021980095
-0.02877732021980095
0.9554376477744655
0.9554376477744655
0.30772460518070555
0.30772460518070555
-0.0024571080402022716
-0.0024571080402022716
-0.09748735327083002
-0.09748735327083002
-0.11358441972542921
-0.11358441972542921
-0.09216434290578857
-0.09216434290578857
-0.05382616236668025
-0.05382616236668025
-0.003831304884446496
-0.003831304884446496
0.06218467518355486
0.06218467518355486
0.16058050922013634
0.16058050922013634
0.30000931079755755
0.30000931079755755
0.430583150362997
0.430583150362997
-0.21813550976342344
-0.21813550976342344
0.09508060462295886
0.09508060462295886
-0.04715770456036039
-0.04715770456036039
-0.13012750888295832
-0.13012750888295832
-0.20130335850449366
-0.20130335850449366
-0.2799513295629932
-0.2799513295629932
-0.3741166738424817
-0.3741166738424817
-0.487082209201932
-0.487082209201932
-0.6135945564290495
-0.6135945564290495
-0.7394418839439294
-0.7394418839439294
-0.7681479157847875
-0.7681479157847875
-0.2820557973113569
-0.2820557973113569
0.9876831173344796
0.9876831173344796
0.3753722213610551
0.3753722213610551
0.03578844621679311
0.03578844621679311
-0.07762018030696827
-0.07762018030696827
-0.10071083024589678
-0.10071083024589678
-0.08126400140905066
-0.08126400140905066
-0.04157415340336179
-0.04157415340336179
0.01247940405288328
0.01247940405288328
0.0847177760532486
0.0847177760532486
0.1941995829097073
0.1941995829097073
0.3339610273842508
0.3339610273842508
0.5347202105204641
0.5347202105204641
-0.11332786067034206
-0.11332786067034206
0.02283496292360654
0.02283496292360654
-0.07750640779971985
-0.07750640779971985
-0.15560449534690468
-0.15560449534690468
-0.23041716385067912
-0.23041716385067912
-0.31492019358618983
-0.31492019358618983
-0.41516119731379475
-0.41516119731379475
-0.5347745261847738
-0.5347745261847738
-0.6698818384616292
-0.6698818384616292
-0.8095418489528496
-0.8095418489528496
-0.8650894164170395
-0.8650894164170395
-0.4285031157618653
-0.4285031157618653
0.9973238820260989
0.9973238820260989
0.422127211195774
0.422127211195774
0.07227204808137466
0.07227204808137466
-0.050029012286864294
-0.050029012286864294
-0.0790268176290756
-0.0790268176290756
-0.06362728031911624
-0.06362728031911624
-0.02693940934779704
-0.02693940934779704
0.024800916339356438
0.024800916339356438
0.09579345466480182
0.09579345466480182
0.20720112305351557
0.20720112305351557
0.36305574545875996
0.36305574545875996
0.5021707739035052
0.5021707739035052
-0.08373914827229867
-0.08373914827229867
-0.0008684742618665364
-0.0008684742618665364
-0.08875509501201972
-0.08875509501201972
-0.166063797405668
-0.166063797405668
-0.24282415157216208
-0.24282415157216208
-0.3301817122734485
-0.3301817122734485
-0.43363499229247515
-0.43363499229247515
-0.5570649693376952
-0.5570649693376952
-0.6974282261236515
-0.6974282261236515
-0.8458454980091041
-0.8458454980091041
-0.9183970384040829
-0.9183970384040829
-0.5130430685198453
-0.5130430685198453
0.9996702028422062
0.9996702028422062
0.44829357903814737
0.44829357903814737
0.09373892901197645
0.09373892901197645
-0.033152687082252275
-0.033152687082252275
-0.06546718095173798
-0.06546718095173798
-0.052593090140774734
-0.052593090140774734
-0.01803440858018357
-0.01803440858018357
0.031801929878774504
0.031801929878774504
0.10137080119325081
0.10137080119325081
0.21288489409103595
0.21288489409103595
0.37503368405728876
0.37503368405728876
0.4875262517376465
0.4875262517376465
-0.07236166042619119
-0.07236166042619119
-0.01066547414805008
-0.01066547414805008
-0.09377192249459942
-0.09377192249459942
-0.17103088564462987
-0.17103088564462987
-0.24887197869325717
-0.24887197869325717
-0.33771928342906876
-0.33771928342906876
-0.4429092287403258
-0.4429092287403258
-0.5685047332222675
-0.5685047332222675
-0.7119436353921218
-0.7119436353921218
-0.8654671719543026
-0.8654671719543026
-0.9478960260297067
-0.9478960260297067
-0.5609926942586552
-0.5609926942586552
0.9999979989045793
0.9999979989045793
0.4627625106706278
0.4627625106706278
0.1057304476780061
0.1057304476780061
-0.023725031014593778
-0.023725031014593778
-0.05792249979544928
-0.05792249979544928
-0.04651767368630755
-0.04651767368630755
-0.013210355488308734
-0.013210355488308734
0.03551154732188566
0.03551154732188566
0.10422493213117201
0.10422493213117201
0.21559323254347662
0.21559323254347662
0.3803503183074417
0.3803503183074417
0.48094419765874574
0.48094419765874574
-0.068157668861907
-0.068157668861907
-0.014425084193457227
-0.014425084193457227
-0.09578697573411499
-0.09578697573411499
-0.1730948331448674
-0.1730948331448674
-0.2514213484469656
-0.2514213484469656
-0.3409262014390051
-0.3409262014390051
-0.44689616248082964
-0.44689616248082964
-0.5734811448886874
-0.5734811448886874
-0.7183363074335614
-0.7183363074335614
-0.8742123605799115
-0.8742123605799115
-0.961191173802636
-0.961191173802636
-0.5828632532628939
-0.5828632532628939
0.9999133117267723
0.9999133117267723
0.4692623612193778
0.4692623612193778
0.11113858382398412
0.11113858382398412
-0.019481702023353753
-0.019481702023353753
-0.054542743680584316
-0.054542743680584316
-0.04381210037312444
-0.04381210037312444
-0.011075354789309655
-0.011075354789309655
0.037141256054104343
0.037141256054104343
0.10545923959467196
0.10545923959467196
0.21671944375079388
0.21671944375079388
0.3824645020439472
0.3824645020439472
0.47832618871607535
0.47832618871607535
-0.06815432491946272
-0.06815432491946272
-0.014418755446233833
-0.014418755446233833
-0.09578416302363624
-0.09578416302363624
-0.17309326994062335
-0.17309326994062335
-0.2514201392479871
-0.2514201392479871
-0.3409250443988623
-0.3409250443988623
-0.4468950063761572
-0.4468950063761572
-0.573480008810231
-0.573480008810231
-0.7183351777645202
-0.7183351777645202
-0.8742109917842913
-0.8742109917842913
-0.9611886199664055
-0.9611886199664055
-0.5828577836626878
-0.5828577836626878
0.9999137729704176
0.9999137729704176
0.4692608381237936
0.4692608381237936
0.11113692530263586
0.11113692530263586
-0.019482934286456643
-0.019482934286456643
-0.05454350932464047
-0.05454350932464047
-0.04381250571001316
-0.04381250571001316
-0.011075516481751313
-0.011075516481751313
0.03714123839508243
0.03714123839508243
0.10545920753098825
0.10545920753098825
0.21671885973876237
0.21671885973876237
0.38246184724692767
0.38246184724692767
0.4783225533436185
0.4783225533436185
-0.07235258281248602
-0.07235258281248602
-0.010643351957095204
-0.010643351957095204
-0.09376214844115838
-0.09376214844115838
-0.17102530723234888
-0.17102530723234888
-0.24886750403816515
-0.24886750403816515
-0.3377148978769944
-0.3377148978769944
-0.44290478555236357
-0.44290478555236357
-0.5685003152891568
-0.5685003152891568
-0.7119392005599217
-0.7119392005599217
-0.8654619098884033
-0.8654619098884033
-0.9478868802112002
-0.9478868802112002
-0.560974207321399
-0.560974207321399
0.9999994392907583
0.9999994392907583
0.4627576300754993
0.4627576300754993
0.1057253168367619
0.1057253168367619
-0.023728657575039946
-0.023728657575039946
-0.05792453537011877
-0.05792453537011877
-0.04651849400141739
-0.04651849400141739
-0.01321037802477698
-0.01321037802477698
0.035511955167244924
0.035511955167244924
0.10422524096335306
0.10422524096335306
0.2155917784429221
0.2155917784429221
0.3803425675736912
0.3803425675736912
0.4809319169334192
0.4809319169334192
-0.08373261423454648
-0.08373261423454648
-0.0008160685065299322
-0.0008160685065299322
-0.08873246524596068
-0.08873246524596068
-0.16605018409404804
-0.16605018409404804
-0.24281233616760756
-0.24281233616760756
-0.33016950604870265
-0.33016950604870265
-0.43362230382224753
-0.43362230382224753
-0.557052186653801
-0.557052186653801
-0.6974153558436471
-0.6974153558436471
-0.8458309136175848
-0.8458309136175848
-0.9183747847149437
-0.9183747847149437
-0.513002825351492
-0.513002825351492
0.9996727918139734
0.9996727918139734
0.44828416780235414
0.44828416780235414
0.093730108830268
0.093730108830268
-0.033157741436118826
-0.033157741436118826
-0.06546850571783791
-0.06546850571783791
-0.052591627514192885
-0.052591627514192885
-0.018031302598011445
-0.018031302598011445
0.03180558846679371
0.03180558846679371
0.10137385572337976
0.10137385572337976
0.21288466403914208
0.21288466403914208
0.37502403069938905
0.37502403069938905
0.4874975956580039
0.4874975956580039
-0.11338892399095157
-0.11338892399095157
0.0229772018182407
0.0229772018182407
-0.0774494744237646
-0.0774494744237646
-0.1555674793521884
-0.1555674793521884
-0.2303794375227719
-0.2303794375227719
-0.31487663610298844
-0.31487663610298844
-0.4151146723573733
-0.4151146723573733
-0.5347288393228218
-0.5347288393228218
-0.6698375084025565
-0.6698375084025565
-0.809495867424139
-0.809495867424139
-0.8650314450528067
-0.8650314450528067
-0.4284118592394006
-0.4284118592394006
0.9973276317094156
0.9973276317094156
0.4221087455838347
0.4221087455838347
0.07226073430968927
0.07226073430968927
-0.05002797608413134
-0.05002797608413134
-0.07901382664716916
-0.07901382664716916
-0.06360468120754925
-0.06360468120754925
-0.02691273326574195
-0.02691273326574195
0.02482544164314837
0.02482544164314837
0.09581280568159467
0.09581280568159467
0.2072152238112588
0.2072152238112588
0.3630733667249806
0.3630733667249806
0.5020783458718353
0.5020783458718353
-0.21906234776028288
-0.21906234776028288
0.09563983220207306
0.09563983220207306
-0.04704533979874226
-0.04704533979874226
-0.13006549358083963
-0.13006549358083963
-0.20105817903705114
-0.20105817903705114
-0.2794282793727536
-0.2794282793727536
-0.3734784197042966
-0.3734784197042966
-0.4866013752810081
-0.4866013752810081
-0.6133935669566242
-0.6133935669566242
-0.7394824403300544
-0.7394824403300544
-0.7683130524234416
-0.7683130524234416
-0.28200126927947644
-0.28200126927947644
0.9876610685685453
0.9876610685685453
0.3750913775385465
0.3750913775385465
0.03558841387364908
0.03558841387364908
-0.07759370526872633
-0.07759370526872633
-0.10038910185355898
-0.10038910185355898
-0.08072839919363806
-0.08072839919363806
-0.04108001015909846
-0.04108001015909846
0.012742339543513448
0.012742339543513448
0.08479582377711903
0.08479582377711903
0.19426658302221955
0.19426658302221955
0.3342826264611932
0.3342826264611932
0.5340356718973545
0.5340356718973545
-0.022672783349465764
-0.022672783349465764
0.01010502837257865
0.01010502837257865
-0.053118352820703985
-0.053118352820703985
-0.10690302340504276
-0.10690302340504276
-0.15743207559944272
-0.15743207559944272
-0.21148620180333366
-0.21148620180333366
-0.2844860636286273
-0.2844860636286273
-0.377464852099785
-0.377464852099785
-0.48037800002722886
-0.48037800002722886
-0.5829694075108114
-0.5829694075108114
-0.5736067588252352
-0.5736067588252352
-0.029244690156885023
-0.029244690156885023
0.9552748948362715
0.9552748948362715
0.30660931541320235
0.30660931541320235
-0.0035897387114181
-0.0035897387114181
-0.09772066365477872
-0.09772066365477872
-0.11245336175887877
-0.11245336175887877
-0.09012766222726953
-0.09012766222726953
-0.052232800204818464
-0.052232800204818464
-0.0035279812395747623
-0.0035279812395747623
0.06156897596153965
0.06156897596153965
0.1596940440131479
0.1596940440131479
0.299167093956469
0.299167093956469
0.4298788372240643
0.4298788372240643
-0.03392975916533114
-0.03859291084885408
-0.017585127515745036
-0.05874976869503201
0.03491414134718951
-0.07024409640686491
-0.08214827419928472
0.030444802448231778
-0.09350612166809236
-0.002247820255011135
-0.07345416357082035
-0.052761115220514965
-0.04693374656374805
-0.04684454301172436
-0.018814475826832933
-0.054801943519313
-0.01713649859289057
-0.047797606259238457
-0.04869059999324743
-0.0235752544782335
-0.03796516073772094
-0.02439064817762726
-0.030882472733821942
-0.03341570043860731
-0.033419182887755694
-0.03859939888221575
-0.018107357459620887
-0.0593539347517833
0.03320597921714796
-0.07125900434902066
-0.08397166105267706
0.028820656850343962
-0.09439457274176322
-0.0037999001316313397
-0.07434992637745719
-0.05336032569213178
-0.047736659804860526
-0.047780939972269065
-0.0201127578341036
-0.056236424303293564
-0.019774217328062837
-0.048954075299243005
-0.04995552167674133
-0.025267301323739666
-0.03854985511111675
-0.02496681285898683
-0.0309782690045719
-0.03293408322141533
